# xmcd
#
# Track frame offsets: 
#        150
#        17991
#        45439
#        68157
#        93667
#        114257
#        135485
#
# Disc length: 2065 seconds
#
# Revision: 0
# Processed by: cddbd v1.5.1PL0 Copyright (c) Steve Scherf et al.
# Submitted via: ExactAudioCopy v0.95b1
#
DISCID=55080f07
DTITLE=Buddy Guy And His Band - Club 47 - Cambridge, Ma 07-26-67 1st S
DTITLE=et
DYEAR=1967
DGENRE=Blues
TTITLE0=Opening Number
TTITLE1=Honky Tonk
TTITLE2=Worry, Worry, Worry
TTITLE3=Jam
TTITLE4=Sweet Little Angel
TTITLE5=I'd Rather Fight Than Switch
TTITLE6=She's Fine
EXTD=
EXTT0=
EXTT1=
EXTT2=
EXTT3=
EXTT4=
EXTT5=
EXTT6=
PLAYORDER=
